<svg xmlns="http://www.w3.org/2000/svg" xmlns:xlink="http://www.w3.org/1999/xlink" viewBox="0 0 22 22"><defs><style>.a{fill:none;}.b{clip-path:url(#a);}.c{clip-path:url(#b);}.d{clip-path:url(#c);}.e{clip-path:url(#d);}.f{clip-path:url(#e);}.g{clip-path:url(#f);}.h{fill:#00baa4;}</style><clipPath id="a"><path class="a" d="M22.365-12.635H20.674a8.71,8.71,0,0,0-8.039-8.039v-1.692A.635.635,0,0,0,12-23a.635.635,0,0,0-.635.635v1.692a8.71,8.71,0,0,0-8.039,8.039H1.635A.635.635,0,0,0,1-12a.635.635,0,0,0,.635.635H3.326a8.71,8.71,0,0,0,8.039,8.039v1.692A.635.635,0,0,0,12-1a.635.635,0,0,0,.635-.635V-3.326a8.71,8.71,0,0,0,8.039-8.039h1.692A.635.635,0,0,0,23-12a.635.635,0,0,0-.635-.635ZM12.635-4.6V-6.241A.635.635,0,0,0,12-6.875a.635.635,0,0,0-.635.635V-4.6A7.44,7.44,0,0,1,4.6-11.365H6.241A.635.635,0,0,0,6.875-12a.635.635,0,0,0-.635-.635H4.6A7.44,7.44,0,0,1,11.365-19.4v1.641a.635.635,0,0,0,.635.635.635.635,0,0,0,.635-.635V-19.4A7.44,7.44,0,0,1,19.4-12.635H17.759a.635.635,0,0,0-.635.635.635.635,0,0,0,.635.635H19.4A7.44,7.44,0,0,1,12.635-4.6ZM12-10a2,2,0,0,0,2-2,2,2,0,0,0-2-2,2,2,0,0,0-2,2A2,2,0,0,0,12-10Z" transform="translate(-1 23)"/></clipPath><clipPath id="b"><path class="a" d="M0,0H24V-24H0Z" transform="translate(0 24)"/></clipPath><clipPath id="c"><rect class="a" width="24" height="24"/></clipPath><clipPath id="d"><path class="a" d="M0-24H24V0H0Z" transform="translate(0 24)"/></clipPath><clipPath id="e"><path class="a" d="M1-1H23V-23H1Z" transform="translate(-1 23)"/></clipPath><clipPath id="f"><rect class="a" width="34" height="34"/></clipPath></defs><g transform="translate(-1 23)"><g class="b" transform="translate(1 -23)"><g class="c" transform="translate(-1 -1)"><g class="d"><g class="e"><g class="f" transform="translate(1 1)"><g class="g" transform="translate(-6 -6)"><g class="f" transform="translate(6 6)"><path class="h" d="M-5-29H29V5H-5Z" transform="translate(-1 23)"/></g></g></g></g></g></g></g></g></svg>